<svg width="51" height="51" viewBox="0 0 50 51" fill="none" xmlns="http://www.w3.org/2000/svg"><circle cx="25" cy="25.547" r="25" fill="#D9D9D9"/><circle cx="25" cy="25.547" r="25" fill="url(#a)"/><path d="m17.019 15.26.084.084 5.235 5.183a3.793 3.793 0 0 0 5.323 0l5.241-5.183.084-.083h4.125l-.494.489-6.892 6.825c-2.527 2.5-6.573 2.578-9.196.235l-.249-.235-6.895-6.825-.495-.49zM20.28 28.6c2.526-2.5 6.57-2.578 9.194-.235l.25.235 6.937 6.867.494.49H33.03l-.083-.084-5.281-5.225-.136-.128a3.793 3.793 0 0 0-5.187.128l-.001-.002-5.282 5.227-.084.083h-4.128l.495-.49z" fill="#fff" stroke="#fff" stroke-width=".572"/><defs><radialGradient id="a" cx="0" cy="0" r="1" gradientUnits="userSpaceOnUse" gradientTransform="rotate(65.1 7.78 14.213)scale(36.8641)"><stop stop-color="#FFDE74"/><stop offset=".481" stop-color="#67D05F"/><stop offset="1" stop-color="#34AE7D"/></radialGradient></defs></svg>