<svg xmlns="http://www.w3.org/2000/svg" width="800" height="800" viewBox="0 0 32 32" xml:space="preserve"><path d="M16 5v4h-1V5zm8.692 3.601-2.828 2.828.707.707 2.828-2.828zm-18.384 0-.707.707 2.828 2.828.707-.707zM29 18h-4v1h4zM6 18H2v1h4zm15 .5c0-3.032-2.468-5.5-5.5-5.5a5.46 5.46 0 0 0-3.889 1.611l.707.707A4.47 4.47 0 0 1 15.5 14a4.505 4.505 0 0 1 3.89 6.766l.863.504A5.5 5.5 0 0 0 21 18.5M15.5 11C11.36 11 8 14.36 8 18.5c0 1.47.43 2.85 1.17 4h1.22a6.43 6.43 0 0 1-1.39-4c0-3.58 2.92-6.5 6.5-6.5s6.5 2.92 6.5 6.5c0 1.29-.35 2.49-1 3.5v.5h.83a7.4 7.4 0 0 0 1.17-4c0-4.14-3.36-7.5-7.5-7.5" style="fill:#cc2954;stroke:#fff;stroke-width:.1"/><path d="M11 22v1H7v-1zm7 0h-4v1h4zm-5 0h-1v1h1zm-7 0H5v1h1zm21 0h-1v1h1zm-2 0h-4v1h4zm-5 0h-1v1h1zm-10 4H6v1h4zm7 0h-4v1h4zm-5 0h-1v1h1zm14 0h-1v1h1zm4-2h-1v1h1zM5 26H4v1h1zm19 0h-4v1h4zm-5 0h-1v1h1zM7 24H3v1h4zm7 0h-4v1h4zm-5 0H8v1h1zm14 0h-1v1h1zm-2 0h-4v1h4zm7 0h-4v1h4zm-12 0h-1v1h1z" style="fill:#2b4099;stroke:#fff;stroke-width:.1"/></svg>